<svg xmlns="http://www.w3.org/2000/svg" viewBox="0 0 512 512">
  <rect width="512" height="512" rx="100" fill="#0f172a"/>
  <!-- Subtle border / glow effect -->
  <rect width="504" height="504" x="4" y="4" rx="96" fill="none" stroke="#1e293b" stroke-width="8"/>
  
  <g transform="translate(100, 100) scale(1.3)">
    <!-- Rocket vector matched to lucide-react 'Rocket' -->
    <path fill="none" stroke="#22d3ee" stroke-width="16" stroke-linecap="round" stroke-linejoin="round" d="M30 180c-15 12.6-20 50-20 50s37.4-5 50-20c7.1-8.4 7-21.3-.9-29.1a21.8 21.8 0 0 0-29.1-.9z"/>
    <path fill="none" stroke="#22d3ee" stroke-width="16" stroke-linecap="round" stroke-linejoin="round" d="m120 150-30-30a220 220 0 0 1 20-39.5A128.8 128.8 0 0 1 220 20c0 27.2-7.8 75-60 110a223.5 223.5 0 0 1-40 20z"/>
    <path fill="none" stroke="#22d3ee" stroke-width="16" stroke-linecap="round" stroke-linejoin="round" d="M90 120H40s5.5-30.3 20-40c16.2-10.8 50 0 50 0"/>
    <path fill="none" stroke="#22d3ee" stroke-width="16" stroke-linecap="round" stroke-linejoin="round" d="M120 150v50s30.3-5.5 40-20c10.8-16.2 0-50 0-50"/>
  </g>
</svg>
